<svg width="119" height="113" viewBox="0 0 119 113" fill="none" xmlns="http://www.w3.org/2000/svg">
<path d="M64.2438 1.68806L90.3936 19.0309C90.9977 19.4315 91.5003 20.0146 91.8502 20.7201C92.2001 21.4259 92.3845 22.2286 92.3845 23.0462C92.3845 23.8638 92.2001 24.6665 91.8502 25.3723C91.5003 26.0778 90.9977 26.6609 90.3936 27.0614L64.244 44.4051C62.575 45.512 60.693 46.0935 58.7787 46.0935C56.8642 46.0935 54.9821 45.512 53.3134 44.4051L27.1636 27.0614C26.5597 26.6609 26.0569 26.0778 25.707 25.3723C25.3571 24.6665 25.1726 23.8638 25.1726 23.0462C25.1726 22.2286 25.3571 21.4259 25.707 20.7201C26.0569 20.0146 26.5597 19.4315 27.1636 19.0309L53.3134 1.68806C54.9821 0.581207 56.8642 -4.19617e-05 58.7787 -4.19617e-05C60.693 -4.19617e-05 62.575 0.581207 64.2438 1.68806Z" fill="#828DF8"/>
<path opacity="0.7" d="M64.1025 17.9692L101.553 42.807C102.157 43.2075 102.66 43.7906 103.01 44.4961C103.359 45.2019 103.544 46.0046 103.544 46.8222C103.544 47.6398 103.359 48.4427 103.01 49.1483C102.66 49.8541 102.157 50.4369 101.553 50.8377L64.1025 75.6752C62.4338 76.7818 60.5518 77.3633 58.6375 77.3633C56.7232 77.3633 54.8411 76.7818 53.1724 75.6752L15.7219 50.8377C15.118 50.4369 14.6152 49.8541 14.2653 49.1483C13.9154 48.4427 13.731 47.6398 13.731 46.8222C13.731 46.0046 13.9154 45.2019 14.2653 44.4961C14.6152 43.7906 15.118 43.2075 15.7219 42.807L53.1724 17.9692C54.8411 16.8626 56.7232 16.2814 58.6375 16.2814C60.5518 16.2814 62.4338 16.8626 64.1025 17.9692Z" fill="#828DF8"/>
<path opacity="0.4" d="M64.9563 34.248L117.012 68.7729C117.615 69.173 118.117 69.755 118.467 70.4596C118.816 71.164 119 71.9656 119 72.7818C119 73.5981 118.816 74.3995 118.467 75.1041C118.117 75.8085 117.615 76.3907 117.012 76.7905L64.9561 111.315C63.29 112.42 61.4111 113 59.4999 113C57.5888 113 55.7098 112.42 54.0438 111.315L1.98771 76.7905C1.38477 76.3907 0.882812 75.8085 0.533485 75.1041C0.184151 74.3995 7.62939e-06 73.5981 7.62939e-06 72.7818C7.62939e-06 71.9656 0.184151 71.164 0.533485 70.4596C0.882812 69.755 1.38477 69.173 1.98771 68.7729L54.0438 34.248C55.7098 33.1432 57.5888 32.5626 59.4999 32.5626C61.4111 32.5626 63.29 33.1432 64.9563 34.248Z" fill="#828DF8"/>
</svg>
